# AST/ASF file generated using VICON BodyLanguage
# -----------------------------------------------
:version 1.10
:name VICON
:units
  mass 1.0
  length 0.45
  angle deg
:documentation
   .ast/.asf automatically generated from VICON data using
   VICON BodyBuilder and BodyLanguage model FoxedUp or BRILLIANT.MOD
:root
   order TX TY TZ RX RY RZ
   axis XYZ
   position 0 0 0  
   orientation 0 0 0 
:bonedata
  begin
     id 1 
     name lhipjoint
     direction 0.535335 -0.74333 0.401095 
     length 2.04549 
     axis 0 0 0  XYZ
  end
  begin
     id 2 
     name lfemur
     direction 0.34202 -0.939693 0  
     length 6.95643  
     axis 0 0 20  XYZ
    dof rx ry rz
    limits (-160.0 20.0)
           (-70.0 70.0)
           (-60.0 70.0)
  end
  begin
     id 3 
     name ltibia
     direction 0.34192 -0.939729 0   
     length 5.55969   
     axis 0 0 20   XYZ
    dof rx
    limits (-10.0 170.0)
  end
  begin
     id 4 
     name lfoot
     direction 0.216943 -0.596046 0.773088   
     length 2.27918   
     axis -90 7.62852e-016 20   XYZ
    dof rx rz
    limits (-45.0 90.0)
           (-70.0 20.0)
  end
  begin
     id 5 
     name ltoes
     direction 1.53519e-011 -4.21748e-011 1   
     length 1.05562   
     axis -90 7.62852e-016 20   XYZ
    dof rx
    limits (-90.0 20.0)
  end
  begin
     id 6 
     name rhipjoint
     direction -0.576368 -0.719173 0.38806   
     length 2.1142  
     axis 0 0 0  XYZ 
  end
  begin
     id 7 
     name rfemur
     direction -0.34202 -0.939693 0   
     length 7.07928   
     axis 0 0 -20   XYZ
    dof rx ry rz
    limits (-160.0 20.0)
           (-70.0 70.0)
           (-70.0 60.0)
  end
  begin
     id 8 
     name rtibia
     direction -0.34202 -0.939693 0   
     length 5.79974   
     axis 0 0 -20   XYZ
    dof rx
    limits (-10.0 170.0)
 end
 begin
     id 9 
     name rfoot
     direction -0.189288 -0.520065 0.832888   
     length 2.42173  
     axis -90 -7.62852e-016 -20   XYZ
    dof rx rz
    limits (-45.0 90.0)
           (-20.0 70.0)
  end
  begin
     id 10 
     name rtoes
     direction -1.53574e-011 -4.21658e-011 1   
     length 1.14469   
     axis -90 -7.62852e-016 -20   XYZ
    dof rx
    limits (-90.0 20.0)
  end
  begin
     id 11 
     name lowerback
     direction -0.00135702 0.993803 0.111144   
     length 1.91308   
     axis 0 0 0   XYZ
    dof rx ry rz
    limits (-20.0 45.0)
           (-30.0 30.0)
           (-30.0 30.0)
  end
  begin
     id 12 
     name upperback
     direction -0.0056745 0.999813 0.0184631   
     length 1.9212   
     axis 0 0 0   XYZ
    dof rx ry rz
    limits (-20.0 45.0)
           (-30.0 30.0)
           (-30.0 30.0)
  end
  begin
     id 13 
     name thorax
     direction -0.00733434 0.999426 -0.0330788   
     length 1.94196   
     axis 0 0 0   XYZ
    dof rx ry rz
    limits (-20.0 45.0)
           (-30.0 30.0)
           (-30.0 30.0)
  end
  begin
     id 14 
     name lowerneck
     direction 0.0563074 0.996944 -0.0541571   
     length 2.34257   
     axis 0 0 0   XYZ
    dof rx ry rz
    limits (-20.0 45.0)
           (-30.0 30.0)
           (-30.0 30.0)
  end
  begin
     id 15 
     name upperneck
     direction -0.0544519 0.976166 -0.210085   
     length 2.32506   
     axis 0 0 0   XYZ
    dof rx ry rz
    limits (-20.0 45.0)
           (-30.0 30.0)
           (-30.0 30.0)
  end
  begin
     id 16
     name head
     direction -0.0226035 0.997615 -0.0652205  
     length 2.3648  
     axis 0 0 0   XYZ
    dof rx ry rz
    limits (-20.0 45.0)
           (-30.0 30.0)
           (-30.0 30.0)
  end
  begin
     id 17 
     name lclavicle
     direction 0.92109 0.381297 -0.0787716  
     length 4.0487  
     axis 0 0 0   XYZ
    dof ry rz
    limits (-20.0 10.0)
           (0.0 20.0)
  end
  begin
     id 18 
     name lhumerus
     direction 1 -4.48986e-011 3.56724e-027   
     length 4.94991   
     axis 180 -30 -90   XYZ
    dof rx ry rz
    limits (-60.0 90.0)
           (-90.0 90.0)
           (-90.0 90.0)
  end
  begin
     id 19
     name lradius
     direction 1 -4.48981e-011 8.62147e-027   
     length 2.7606   
     axis 180 -30 -90   XYZ
    dof rx
    limits (-10.0 170.0)
  end
  begin
     id 20
     name lwrist
     direction 1 -4.48989e-011 1.59799e-026   
     length 1.3803   
     axis -1.17785e-014 90 90   XYZ
    dof ry
    limits (-180.0 0.0)
 end
  begin
     id 21 
     name lhand
     direction 1 -4.48896e-011 3.19599e-026   
     length 0.843936   
     axis -2.03931e-014 90 90   XYZ
    dof rx rz
    limits (-90.0 90.0)
           (-45.0 45.0)
  end
  begin
     id 22 
     name lfingers
     direction 1 -4.48887e-011 6.39197e-026   
     length 0.680403   
     axis -4.07862e-014 90 90   XYZ
    dof rx
    limits (0.0 90.0)
  end
  begin
     id 23
     name lthumb
     direction 0.707107 -6.348e-011 0.707107   
     length 0.976926   
     axis -90 45 2.85299e-015   XYZ
    dof rx rz
    limits (-45.0 45.0)
           (-45.0 45.0)
  end
  begin
     id 24 
     name rclavicle
     direction -0.951104 0.307692 -0.026953   
     length 4.21801  
     axis 0 0 0   XYZ 
    dof ry rz
    limits (-10.0 20.0)
           (-20.0 0.0)
  end
  begin
     id 25 
     name rhumerus
     direction -1 -4.4896e-011 -1.8171e-018  
     length 4.32982   
     axis 180 30 90   XYZ
    dof rx ry rz
    limits (-90.0 60.0)
           (-90.0 90.0)
           (-90.0 90.0)
  end
  begin
     id 26 
     name rradius
     direction -1 -4.48959e-011 8.25165e-027   
     length 3.20057   
     axis 180 30 90   XYZ
    dof rx
    limits (-10.0 170.0)
  end
  begin
     id 27 
     name rwrist
     direction -1 -4.48997e-011 1.59799e-026   
     length 1.60029   
     axis -1.17785e-014 -90 -90   XYZ
    dof ry
    limits (-180.0 0.0)
  end
  begin
     id 28
     name rhand
     direction -1 -4.49023e-011 3.19599e-026   
     length 0.960433   
     axis -2.03931e-014 -90 -90   XYZ
    dof rx rz
    limits (-90.0 90.0)
           (-45.0 45.0)
  end
  begin
     id 29
     name rfingers
     direction -1 -4.48802e-011 6.39197e-026   
     length 0.774326   
     axis -4.07862e-014 -90 -90   XYZ
    dof rx
    limits (0.0 90.0)
  end
  begin
     id 30
     name rthumb
     direction -0.707107 -6.34876e-011 0.707107   
     length 1.11178   
     axis -90 -45 -2.85299e-015   XYZ
    dof rx rz
    limits (-45.0 45.0)
           (-45.0 45.0)
  end
:hierarchy
  begin
    root lhipjoint rhipjoint lowerback
    lhipjoint lfemur
    lfemur ltibia
    ltibia lfoot
    lfoot ltoes
    rhipjoint rfemur
    rfemur rtibia
    rtibia rfoot
    rfoot rtoes
    lowerback upperback
    upperback thorax
    thorax lowerneck lclavicle rclavicle
    lowerneck upperneck
    upperneck head
    lclavicle lhumerus
    lhumerus lradius
    lradius lwrist
    lwrist lhand lthumb
    lhand lfingers
    rclavicle rhumerus
    rhumerus rradius
    rradius rwrist
    rwrist rhand rthumb
    rhand rfingers
end

#!OML:ASF C:\KaitlinTest1\Natural Motions\Nikki\Session 2\Nikki.ASF
:FULLY-SPECIFIED
:DEGREES
147
root -11.118 16.4275 4.89071 -148.83 85.115 -160.979
lowerback -8.77181 -2.65809 1.03023
upperback -2.67649 -3.53745 -0.28278
thorax 2.05593 -1.73085 -1.2323
lowerneck -6.40948 -11.683 -9.84693
upperneck 5.22183 39.0427 4.89536
head 163.119 64.7778 -40.6666
rclavicle 5.17337e-014 1.51076e-014
rhumerus -38.8302 -11.6053 -83.6495
rradius 20.3186
rwrist 18.2129
rhand -37.0265 3.1778
rfingers 7.12502
rthumb -10.1002 -26.5598
lclavicle 5.17337e-014 1.51076e-014
lhumerus -42.0265 18.8089 78.247
lradius 27.1624
lwrist -28.6286
lhand -36.0378 4.64022
lfingers 7.12502
lthumb -9.14632 34.4219
rfemur -16.556 -13.8836 21.7478
rtibia 26.2549
rfoot -18.9017 9.02052
rtoes 8.34896e-014
lfemur -20.2838 14.1109 -18.855
ltibia 27.9651
lfoot -12.3917 -16.0373
ltoes -2.70347e-014
148
root -11.1223 16.4277 4.88963 -148.931 85.1066 -161.202
lowerback -8.51328 -2.65094 1.03551
upperback -2.64726 -3.52941 -0.285246
thorax 1.94323 -1.72921 -1.22444
lowerneck -6.53083 -11.7288 -9.8039
upperneck 5.18955 39.0318 4.87175
head 163.013 64.6949 -40.7405
rclavicle -2.61402e-014 -1.98785e-015
rhumerus -39.1374 -11.6801 -83.3124
rradius 20.4304
rwrist 18.1919
rhand -36.9485 3.1321
rfingers 7.12502
rthumb -10.025 -26.6091
lclavicle -2.61402e-014 -1.98785e-015
lhumerus -42.1634 18.9264 78.0115
lradius 27.1769
lwrist -28.407
lhand -35.9947 4.33551
lfingers 7.12502
lthumb -9.10469 34.119
rfemur -16.7809 -13.7993 21.7561
rtibia 26.3739
rfoot -18.8836 8.93849
rtoes 1.59028e-014
lfemur -20.4399 14.0176 -18.9067
ltibia 27.9551
lfoot -12.3409 -15.9498
ltoes 3.18055e-014
149
root -11.1272 16.4297 4.88836 -148.98 85.1179 -161.398
lowerback -8.25853 -2.65841 0.99379
upperback -2.63005 -3.53729 -0.258638
thorax 1.82444 -1.73531 -1.16188
lowerneck -6.6487 -11.6961 -9.84856
upperneck 5.19312 39.2283 4.89434
head 163.331 64.4409 -40.5335
rclavicle 5.13858e-014 9.93923e-015
rhumerus -39.3366 -11.6569 -83.0142
rradius 20.3673
rwrist 17.9107
rhand -37.0955 3.38512
rfingers 7.12502
rthumb -10.1668 -26.3492
lclavicle 5.13858e-014 9.93923e-015
lhumerus -42.3435 19.0092 77.8464
lradius 27.2465
lwrist -28.1991
lhand -36.0879 4.38981
lfingers 7.12502
lthumb -9.19461 34.1694
rfemur -17.0286 -13.685 21.7672
rtibia 26.4921
rfoot -18.8925 8.81371
rtoes 8.74653e-014
lfemur -20.6384 13.8043 -18.962
ltibia 27.9702
lfoot -12.3022 -15.7163
ltoes 4.6118e-014
150
root -11.1329 16.4324 4.88773 -149.219 85.1398 -161.772
lowerback -8.02534 -2.65629 0.957885
upperback -2.54804 -3.53368 -0.292018
thorax 1.78046 -1.7355 -1.16632
lowerneck -6.85784 -11.7046 -9.7814
upperneck 5.14683 39.3053 4.91501
head 163.504 64.327 -40.4583
rclavicle 5.12864e-014 9.93923e-015
rhumerus -39.5752 -11.4734 -82.9097
rradius 20.5528
rwrist 17.4601
rhand -36.9726 3.01071
rfingers 7.12502
rthumb -10.0482 -26.7294
lclavicle 5.12864e-014 9.93923e-015
lhumerus -42.4854 19.2305 77.5307
lradius 27.4129
lwrist -28.0389
lhand -36.028 4.41729
lfingers 7.12502
lthumb -9.13682 34.1994
rfemur -17.2575 -13.5184 21.7581
rtibia 26.6182
rfoot -18.8994 8.63575
rtoes -7.95139e-015
lfemur -20.8416 13.7555 -19.0536
ltibia 27.9783
lfoot -12.2697 -15.637
ltoes -7.95139e-015
